<?xml version="1.0" encoding="UTF-8" standalone="no"?>
<!-- Generator: Adobe Illustrator 15.1.0, SVG Export Plug-In . SVG Version: 6.00 Build 0)  -->

<svg
   version="1.1"
   id="Layer_1"
   x="0px"
   y="0px"
   width="1000px"
   height="431px"
   viewBox="0 0 1000 431"
   enable-background="new 0 0 1000 431"
   xml:space="preserve"
   sodipodi:docname="NHLRink.svg"
   inkscape:version="1.4.3 (0d15f75, 2025-12-25)"
   xmlns:inkscape="http://www.inkscape.org/namespaces/inkscape"
   xmlns:sodipodi="http://sodipodi.sourceforge.net/DTD/sodipodi-0.dtd"
   xmlns="http://www.w3.org/2000/svg"
   xmlns:svg="http://www.w3.org/2000/svg"><defs
   id="defs40" /><sodipodi:namedview
   id="namedview40"
   pagecolor="#ffffff"
   bordercolor="#000000"
   borderopacity="0.25"
   inkscape:showpageshadow="2"
   inkscape:pageopacity="0.0"
   inkscape:pagecheckerboard="0"
   inkscape:deskcolor="#d1d1d1"
   inkscape:zoom="0.5"
   inkscape:cx="501"
   inkscape:cy="216"
   inkscape:window-width="1284"
   inkscape:window-height="895"
   inkscape:window-x="0"
   inkscape:window-y="33"
   inkscape:window-maximized="0"
   inkscape:current-layer="Layer_1" />

<path
   fill="#FFFFFF"
   d="M1000,337.457c0,51.662-41.881,93.543-93.543,93.543H93.543C41.881,431,0,389.119,0,337.457V93.543  C0,41.881,41.881,0,93.543,0h812.914C958.119,0,1000,41.881,1000,93.543V337.457z"
   id="path1"
   style="stroke-width:3.40000024;stroke-dasharray:none;stroke:#9aabb8;stroke-opacity:1;fill:#e9f0f7;fill-opacity:1" />
<rect
   x="499.5"
   fill="#DE5D56"
   width="6"
   height="431"
   id="rect2"
   style="fill:#d47b7b;fill-opacity:1" />
<rect
   x="362.833"
   fill="#5066AC"
   width="6"
   height="431"
   id="rect3"
   style="fill:#7b9bd4;fill-opacity:1" />
<rect
   x="636.167"
   fill="#5066AC"
   width="6"
   height="431"
   id="rect4"
   style="fill:#7b9bd4;fill-opacity:1" />
<path
   fill="#5066AC"
   d="M503.334,289.5c-41.815,0-75.833-34.019-75.833-75.833s34.019-75.833,75.833-75.833  c41.815,0,75.834,34.019,75.834,75.833S545.149,289.5,503.334,289.5z M503.334,138.833c-41.263,0-74.833,33.57-74.833,74.833  s33.57,74.833,74.833,74.833c41.264,0,74.834-33.57,74.834-74.833S544.598,138.833,503.334,138.833z"
   id="path4" />
<circle
   fill="#DE5D56"
   cx="390.5"
   cy="105"
   r="4.25"
   id="circle4" />
<circle
   fill="#DE5D56"
   cx="614"
   cy="105"
   r="4.25"
   id="circle5" />
<circle
   fill="#DE5D56"
   cx="390.5"
   cy="322"
   r="4.25"
   id="circle6" />
<circle
   fill="#DE5D56"
   cx="614"
   cy="322"
   r="4.25"
   id="circle7" />
<g
   id="g14">
	<path
   fill="#DE5D56"
   d="M172,180.833c-41.815,0-75.833-34.019-75.833-75.833S130.186,29.166,172,29.166S247.834,63.185,247.834,105   S213.815,180.833,172,180.833z M172,30.166c-41.263,0-74.833,33.57-74.833,74.833s33.57,74.833,74.833,74.833   s74.833-33.57,74.833-74.833S213.264,30.166,172,30.166z"
   id="path7" />
	<circle
   fill="#DE5D56"
   cx="171.917"
   cy="105"
   r="4.25"
   id="circle8" />
	<g
   id="g9">
		<polygon
   fill="#DE5D56"
   points="163.167,101.167 144,101.167 144,100.167 162.167,100.167 162.167,89.667 163.167,89.667   "
   id="polygon8" />
		<polygon
   fill="#DE5D56"
   points="200,101.167 180.833,101.167 180.833,89.667 181.833,89.667 181.833,100.167 200,100.167   "
   id="polygon9" />
	</g>
	<g
   id="g11">
		<polygon
   fill="#DE5D56"
   points="163.167,120.266 162.167,120.266 162.167,109.766 144,109.766 144,108.766 163.167,108.766   "
   id="polygon10" />
		<polygon
   fill="#DE5D56"
   points="181.833,120.266 180.833,120.266 180.833,108.766 200,108.766 200,109.766 181.833,109.766   "
   id="polygon11" />
	</g>
	<rect
   x="162.375"
   y="20.5"
   fill="#DE5D56"
   width="1"
   height="9.625"
   id="rect11" />
	<rect
   x="180.625"
   y="20.5"
   fill="#DE5D56"
   width="1"
   height="9.625"
   id="rect12" />
	<rect
   x="162.375"
   y="180"
   fill="#DE5D56"
   width="1"
   height="9.625"
   id="rect13" />
	<rect
   x="180.625"
   y="180"
   fill="#DE5D56"
   width="1"
   height="9.625"
   id="rect14" />
</g>
<g
   id="g20">
	<path
   fill="#DE5D56"
   d="M172,396.833c-41.815,0-75.833-34.019-75.833-75.833c0-41.815,34.019-75.834,75.833-75.834   s75.833,34.019,75.833,75.834C247.834,362.814,213.815,396.833,172,396.833z M172,246.166c-41.263,0-74.833,33.57-74.833,74.834   c0,41.263,33.57,74.833,74.833,74.833s74.833-33.57,74.833-74.833C246.834,279.736,213.264,246.166,172,246.166z"
   id="path14" />
	<circle
   fill="#DE5D56"
   cx="171.917"
   cy="321"
   r="4.25"
   id="circle14" />
	<g
   id="g15">
		<polygon
   fill="#DE5D56"
   points="163.167,317.167 144,317.167 144,316.167 162.167,316.167 162.167,305.667 163.167,305.667   "
   id="polygon14" />
		<polygon
   fill="#DE5D56"
   points="200,317.167 180.833,317.167 180.833,305.667 181.833,305.667 181.833,316.167 200,316.167   "
   id="polygon15" />
	</g>
	<g
   id="g17">
		<polygon
   fill="#DE5D56"
   points="163.167,336.266 162.167,336.266 162.167,325.766 144,325.766 144,324.766 163.167,324.766   "
   id="polygon16" />
		<polygon
   fill="#DE5D56"
   points="181.833,336.266 180.833,336.266 180.833,324.766 200,324.766 200,325.766 181.833,325.766   "
   id="polygon17" />
	</g>
	<rect
   x="162.375"
   y="236.5"
   fill="#DE5D56"
   width="1"
   height="9.625"
   id="rect17" />
	<rect
   x="180.625"
   y="236.5"
   fill="#DE5D56"
   width="1"
   height="9.625"
   id="rect18" />
	<rect
   x="162.375"
   y="396"
   fill="#DE5D56"
   width="1"
   height="9.625"
   id="rect19" />
	<rect
   x="180.625"
   y="396"
   fill="#DE5D56"
   width="1"
   height="9.625"
   id="rect20" />
</g>
<g
   id="g26">
	<path
   fill="#DE5D56"
   d="M832,180.833c-41.814,0-75.833-34.019-75.833-75.833S790.186,29.166,832,29.166   c41.815,0,75.834,34.019,75.834,75.833S873.815,180.833,832,180.833z M832,30.166c-41.263,0-74.833,33.57-74.833,74.833   s33.57,74.833,74.833,74.833c41.264,0,74.834-33.57,74.834-74.833S873.264,30.166,832,30.166z"
   id="path20" />
	<circle
   fill="#DE5D56"
   cx="831.917"
   cy="105"
   r="4.25"
   id="circle20" />
	<g
   id="g21">
		<polygon
   fill="#DE5D56"
   points="823.166,101.167 804,101.167 804,100.167 822.166,100.167 822.166,89.667 823.166,89.667   "
   id="polygon20" />
		<polygon
   fill="#DE5D56"
   points="860,101.167 840.834,101.167 840.834,89.667 841.834,89.667 841.834,100.167 860,100.167   "
   id="polygon21" />
	</g>
	<g
   id="g23">
		<polygon
   fill="#DE5D56"
   points="823.166,120.266 822.166,120.266 822.166,109.766 804,109.766 804,108.766 823.166,108.766   "
   id="polygon22" />
		<polygon
   fill="#DE5D56"
   points="841.834,120.266 840.834,120.266 840.834,108.766 860,108.766 860,109.766 841.834,109.766   "
   id="polygon23" />
	</g>
	<rect
   x="822.375"
   y="20.5"
   fill="#DE5D56"
   width="1"
   height="9.625"
   id="rect23" />
	<rect
   x="840.625"
   y="20.5"
   fill="#DE5D56"
   width="1"
   height="9.625"
   id="rect24" />
	<rect
   x="822.375"
   y="180"
   fill="#DE5D56"
   width="1"
   height="9.625"
   id="rect25" />
	<rect
   x="840.625"
   y="180"
   fill="#DE5D56"
   width="1"
   height="9.625"
   id="rect26" />
</g>
<g
   id="g32">
	<path
   fill="#DE5D56"
   d="M832,396.833c-41.814,0-75.833-34.019-75.833-75.833c0-41.815,34.019-75.834,75.833-75.834   c41.815,0,75.834,34.019,75.834,75.834C907.834,362.814,873.815,396.833,832,396.833z M832,246.166   c-41.263,0-74.833,33.57-74.833,74.834c0,41.263,33.57,74.833,74.833,74.833c41.264,0,74.834-33.57,74.834-74.833   C906.834,279.736,873.264,246.166,832,246.166z"
   id="path26" />
	<circle
   fill="#DE5D56"
   cx="831.917"
   cy="321"
   r="4.25"
   id="circle26" />
	<g
   id="g27">
		<polygon
   fill="#DE5D56"
   points="823.166,317.167 804,317.167 804,316.167 822.166,316.167 822.166,305.667 823.166,305.667   "
   id="polygon26" />
		<polygon
   fill="#DE5D56"
   points="860,317.167 840.834,317.167 840.834,305.667 841.834,305.667 841.834,316.167 860,316.167   "
   id="polygon27" />
	</g>
	<g
   id="g29">
		<polygon
   fill="#DE5D56"
   points="823.166,336.266 822.166,336.266 822.166,325.766 804,325.766 804,324.766 823.166,324.766   "
   id="polygon28" />
		<polygon
   fill="#DE5D56"
   points="841.834,336.266 840.834,336.266 840.834,324.766 860,324.766 860,325.766 841.834,325.766   "
   id="polygon29" />
	</g>
	<rect
   x="822.375"
   y="236.5"
   fill="#DE5D56"
   width="1"
   height="9.625"
   id="rect29" />
	<rect
   x="840.625"
   y="236.5"
   fill="#DE5D56"
   width="1"
   height="9.625"
   id="rect30" />
	<rect
   x="822.375"
   y="396"
   fill="#DE5D56"
   width="1"
   height="9.625"
   id="rect31" />
	<rect
   x="840.625"
   y="396"
   fill="#DE5D56"
   width="1"
   height="9.625"
   id="rect32" />
</g>
<circle
   fill="#5066AC"
   cx="502.5"
   cy="213.5"
   r="3"
   id="circle32" />

<g
   id="g37">
	<rect
   x="70.166"
   y="2.333"
   fill="#DE5D56"
   width="1"
   height="425.333"
   id="rect33" />
	
		<rect
   x="-3.734"
   y="118.5"
   transform="matrix(0.9044 0.4266 -0.4266 0.9044 54.1449 -3.701)"
   fill="#DE5D56"
   width="78.133"
   height="1"
   id="rect34" />
	
		<rect
   x="34.833"
   y="267.934"
   transform="matrix(0.4268 0.9044 -0.9044 0.4268 297.8904 144.0239)"
   fill="#DE5D56"
   width="1"
   height="78.133"
   id="rect35" />
	<g
   id="g36">
		<path
   fill="#53C8EA"
   d="M92.667,195.418h-22v39.083H92.25c0,0,7.583-6.833,7.583-18.75    C99.833,203.834,92.667,195.418,92.667,195.418z"
   id="path35" />
		<path
   fill="#DE5D56"
   d="M92.442,235.001H70.167v-40.083h22.731l0.15,0.176c0.073,0.085,7.286,8.695,7.286,20.658    c0,12.001-7.433,18.835-7.749,19.121L92.442,235.001z M71.167,234.001H92.05c1.006-0.987,7.284-7.58,7.284-18.25    c0-10.657-5.905-18.571-6.905-19.833H71.167V234.001z"
   id="path36" />
	</g>
</g>
<rect
   x="933.709"
   y="3.667"
   fill="#DE5D56"
   width="1"
   height="423.999"
   id="rect37" />
<rect
   x="966.605"
   y="83.683"
   transform="matrix(0.428 0.9038 -0.9038 0.428 661.7531 -805.3743)"
   fill="#DE5D56"
   width="0.999"
   height="72.8"
   id="rect38" />
<rect
   x="930.74"
   y="305.376"
   transform="matrix(0.9051 0.4252 -0.4252 0.9051 221.8494 -382.2589)"
   fill="#DE5D56"
   width="73.103"
   height="1"
   id="rect39" />
<g
   id="g40">
	<path
   fill="#53C8EA"
   d="M912.208,195.418h22v39.083h-21.583c0,0-7.584-6.833-7.584-18.75   C905.041,203.834,912.208,195.418,912.208,195.418z"
   id="path39" />
	<path
   fill="#DE5D56"
   d="M934.708,235.001h-22.275l-0.143-0.129c-0.316-0.285-7.749-7.119-7.749-19.121   c0-11.963,7.214-20.572,7.286-20.658l0.15-0.176h22.73V235.001z M912.825,234.001h20.883v-38.083h-21.262   c-1,1.263-6.905,9.177-6.905,19.833C905.541,226.421,911.819,233.014,912.825,234.001z"
   id="path40" />
</g>
</svg>
