<?xml version="1.0" encoding="UTF-8" standalone="no"?>
<svg
   id="svg2"
   viewBox="0 0 378.23149 345.49609"
   space="preserve"
   version="1.1"
   sodipodi:docname="rink-half.svg"
   inkscape:version="1.4.3 (0d15f75, 2025-12-25)"
   width="378.23148"
   height="345.49609"
   xmlns:inkscape="http://www.inkscape.org/namespaces/inkscape"
   xmlns:sodipodi="http://sodipodi.sourceforge.net/DTD/sodipodi-0.dtd"
   xmlns="http://www.w3.org/2000/svg"
   xmlns:svg="http://www.w3.org/2000/svg">
  <defs
     id="defs1" />
  <sodipodi:namedview
     id="namedview1"
     pagecolor="#ffffff"
     bordercolor="#000000"
     borderopacity="0.25"
     inkscape:showpageshadow="2"
     inkscape:pageopacity="0.0"
     inkscape:pagecheckerboard="0"
     inkscape:deskcolor="#d1d1d1"
     inkscape:zoom="1.0659131"
     inkscape:cx="185.75623"
     inkscape:cy="191.38521"
     inkscape:window-width="1261"
     inkscape:window-height="863"
     inkscape:window-x="0"
     inkscape:window-y="33"
     inkscape:window-maximized="0"
     inkscape:current-layer="svg2" />
  <!--
    Lightened rink — colours desaturated ~60 %, stroke widths halved.
    Background: pale ice-blue  (#e8f0f8)
    Rink border: mid-grey      (#9aabb8)  was #000  4.0 px → 2.0 px
    Blue lines:  soft blue     (#7a9bd4)  was #4466bb  8.0 px → 4.0 px
    Red lines:   soft red      (#d47a7a)  was #cc3333  6.6 / 3.0 px → 3.0 / 1.5 px
    Dots/fills:  soft red      (#d47a7a)  was #cc3333
    Centre dot:  soft blue     (#7a9bd4)  was #5567b0
    Crease arc:  soft red      (#d47a7a)  was #cc3333  2.1 px → 1.0 px
    Goal crease rects: soft blue (#7a9bd4) was #4466bb
  -->
  <!-- Ice surface -->
  <path
     id="rect2206"
     style="fill:#e8f0f8;stroke:#9aabb8;stroke-width:2;stroke-linecap:round;stroke-linejoin:round"
     d="M 104.38086,1 C 47.284859,1 1.002,42.345656 1,93.347659 V 252.14649 c 0,51 46.284859,92.34961 103.38086,92.34961 H 376.49219 V 1 Z" />
  <!-- Centre circle -->
  <path
     id="path2208"
     style="fill:none;stroke:#7a9bd4;stroke-width:1.8145;stroke-linecap:round;stroke-linejoin:round"
     d="m 373.26172,127.07031 a 45.680903,45.680054 0 0 0 -45.68165,45.67969 45.680903,45.680054 0 0 0 45.68165,45.68164 45.680903,45.680054 0 0 0 4.0625,-0.18163 v -90.99806 a 45.680903,45.680054 0 0 0 -4.0625,-0.18164 z" />
  <!-- Left face-off dots (top & bottom) -->
  <g
     id="g3845"
     transform="translate(33,-1.001953)">
    <ellipse
       id="path2210"
       style="fill:#d47a7a;stroke:#d47a7a;stroke-width:0.5;stroke-linecap:round;stroke-linejoin:round"
       rx="5.2690001"
       ry="5.3340001"
       cy="82.168999"
       cx="249.02" />
    <ellipse
       id="path2212"
       style="fill:#d47a7a;stroke:#d47a7a;stroke-width:0.5;stroke-linecap:round;stroke-linejoin:round"
       rx="5.2690001"
       ry="5.335"
       cy="258.41"
       cx="249.02" />
  </g>
  <!-- Right face-off dots (top & bottom) -->
  <!-- Centre (red dashed) line -->
  <line
     id="path2218"
     style="fill:none;stroke:#d47a7a;stroke-width:3;stroke-linecap:square;stroke-dasharray:9.88, 9.88"
     x1="372.39999"
     y1="6.2459474"
     x2="374.10001"
     y2="339.20804" />
  <!-- Blue lines -->
  <line
     id="path3093"
     style="fill:none;stroke:#7a9bd4;stroke-width:4"
     x1="260.51001"
     y1="2.5810456"
     x2="260.76999"
     y2="342.47806" />
  <!-- Left face-off circles + hash marks (top & bottom) -->
  <path
     id="path25"
     style="fill:none;stroke:#d47a7a;stroke-width:1.5;stroke-linecap:round;stroke-linejoin:round"
     d="m 169.67,255.72805 c 0,22.072 -18.294,39.986 -40.834,39.986 -22.54,0 -40.834,-17.914 -40.834,-39.986 0,-22.073 18.294,-39.988 40.834,-39.988 22.54,0 40.834,17.915 40.834,39.988 z m -50.054,-39.988 v -9.773 m 17.563,-0.001 v 10.662 m 1.756,79.086 v 9.775 m -20.197,-8.886 v 8.887" />
  <path
     id="path24203"
     style="fill:#d47a7a"
     d="m 135.59,256.93805 c 0,3.343 -2.681,6.056 -5.983,6.056 -3.302,0 -5.983,-2.713 -5.983,-6.056 0,-3.342 2.681,-6.055 5.983,-6.055 3.296,0 5.973,2.699 5.983,6.035" />
  <path
     id="path28"
     style="fill:none;stroke:#d47a7a;stroke-width:1.5;stroke-linecap:round;stroke-linejoin:round"
     d="m 169.67,80.727049 c 0,22.073001 -18.294,39.988001 -40.834,39.988001 -22.54,0 -40.834,-17.915 -40.834,-39.988001 0,-22.073002 18.294,-39.987002 40.834,-39.987002 22.54,0 40.834,17.915 40.834,39.987002 z M 119.616,40.740047 v -9.774 m 17.563,0 v 10.663 m 1.756,79.086003 v 9.774 m -20.197,-8.886 v 8.886" />
  <path
     id="path24191"
     style="fill:#d47a7a"
     d="m 135.28,80.697049 c 0,3.343 -2.681,6.055 -5.983,6.055 -3.304,0 -5.984,-2.712 -5.984,-6.055 0,-3.342 2.681,-6.055 5.984,-6.055 3.296,0 5.972,2.699 5.983,6.034" />
  <!-- Right face-off circles + hash marks (top & bottom) -->
  <!-- Left goal crease (blue rect) -->
  <rect
     id="rect3044"
     style="fill:#7a9bd4"
     ry="0"
     height="34.125999"
     width="14.027"
     y="158.88805"
     x="66.007004" />
  <!-- Left goal line + crease arc -->
  <path
     id="path39"
     style="fill:none;stroke:#d47a7a;stroke-width:1.5;stroke-linecap:round"
     d="M 64.6,11.584047 64.555,334.17405 m 0.691,-188.06 c 42.611,-0.1 44.025,60.907 -0.423,60.649 m 0.336,-48.495 c 1.011,0.146 15.232,-0.098 15.232,-0.098 l 0.277,35.943 H 64.706" />
  <!-- Right goal crease (blue rect) -->
  <!-- Right goal line + crease arc -->
  <!-- Centre ice dot -->
  <path
     id="path29529"
     style="fill:#7a9bd4"
     d="m 377.11,172.74805 c 0.002,1.435 -0.733,2.762 -1.928,3.48 -1.195,0.718 -2.668,0.718 -3.863,0 -1.195,-0.71899 -1.931,-2.046 -1.929,-3.48 -0.002,-1.436 0.733,-2.763 1.929,-3.48 1.195,-0.719 2.668,-0.719 3.863,0 1.195,0.717 1.93,2.044 1.928,3.48 z" />
  <!-- Centre ice crease arc -->
  <rect
     style="fill:none;fill-opacity:0.976923;stroke:#050429;stroke-width:0;stroke-opacity:0.969231"
     id="rect1"
     width="359.63623"
     height="390.48538"
     x="368.37808"
     y="-32.66293"
     rx="3.1688092"
     ry="5.7434664" />
</svg>
