<?xml version="1.0" encoding="UTF-8" standalone="no"?>
<!-- Generator: Adobe Illustrator 15.1.0, SVG Export Plug-In . SVG Version: 6.00 Build 0)  -->

<svg
   version="1.1"
   id="Layer_1"
   x="0px"
   y="0px"
   width="505.72586"
   height="431"
   viewBox="0 0 505.72586 431"
   enable-background="new 0 0 1000 431"
   xml:space="preserve"
   sodipodi:docname="rink-half.svg"
   inkscape:version="1.4.3 (0d15f75, 2025-12-25)"
   xmlns:inkscape="http://www.inkscape.org/namespaces/inkscape"
   xmlns:sodipodi="http://sodipodi.sourceforge.net/DTD/sodipodi-0.dtd"
   xmlns="http://www.w3.org/2000/svg"
   xmlns:svg="http://www.w3.org/2000/svg"><defs
   id="defs40"><inkscape:path-effect
     effect="powerclip"
     message=""
     id="path-effect115"
     is_visible="true"
     lpeversion="1"
     inverse="true"
     flatten="false"
     hide_clip="false" /><clipPath
     clipPathUnits="userSpaceOnUse"
     id="clipPath115"><rect
       style="display:none;opacity:0.996528;fill:#d47b7b;fill-opacity:1;stroke:#9aabb8;stroke-width:3.5782;stroke-dasharray:none;stroke-opacity:1"
       id="rect115"
       width="512.6264"
       height="488.96768"
       x="512.59369"
       y="-33.133041"
       d="M 512.59369,-33.133041 H 1025.2201 V 455.83464 H 512.59369 Z" /><path
       id="lpe_path-effect115"
       style="opacity:0.996528;fill:#d47b7b;fill-opacity:1;stroke:#9aabb8;stroke-width:3.5782;stroke-dasharray:none;stroke-opacity:1"
       class="powerclip"
       d="M -6.7,-6.7 H 1006.7 V 437.7 H -6.7 Z M 512.59369,-33.133041 V 455.83464 H 1025.2201 V -33.133041 Z" /></clipPath></defs><sodipodi:namedview
   id="namedview40"
   pagecolor="#ffffff"
   bordercolor="#000000"
   borderopacity="0.25"
   inkscape:showpageshadow="2"
   inkscape:pageopacity="0.0"
   inkscape:pagecheckerboard="0"
   inkscape:deskcolor="#d1d1d1"
   inkscape:zoom="0.63401697"
   inkscape:cx="496.04351"
   inkscape:cy="225.54602"
   inkscape:window-width="1284"
   inkscape:window-height="895"
   inkscape:window-x="0"
   inkscape:window-y="33"
   inkscape:window-maximized="0"
   inkscape:current-layer="Layer_1" />

<path
   fill="#FFFFFF"
   d="M 1000,337.457 C 1000,389.119 958.119,431 906.457,431 H 93.543 C 41.881,431 0,389.119 0,337.457 V 93.543 C 0,41.881 41.881,0 93.543,0 H 906.457 C 958.119,0 1000,41.881 1000,93.543 Z"
   id="path1"
   style="fill:#e9f0f7;fill-opacity:1;stroke:#9aabb8;stroke-width:3.4;stroke-dasharray:none;stroke-opacity:1"
   clip-path="url(#clipPath115)"
   inkscape:path-effect="#path-effect115"
   inkscape:original-d="M 1000,337.457 C 1000,389.119 958.119,431 906.457,431 H 93.543 C 41.881,431 0,389.119 0,337.457 V 93.543 C 0,41.881 41.881,0 93.543,0 H 906.457 C 958.119,0 1000,41.881 1000,93.543 Z"
   transform="translate(0.22586464)" />
<rect
   x="499.72586"
   fill="#DE5D56"
   width="6"
   height="431"
   id="rect2"
   style="fill:#d47b7b;fill-opacity:1"
   y="0" />
<rect
   x="363.05887"
   fill="#5066AC"
   width="6"
   height="431"
   id="rect3"
   style="fill:#7b9bd4;fill-opacity:1"
   y="0" />

<path
   fill="#5066ac"
   d="m 503.55986,289.5 c -41.815,0 -75.833,-34.019 -75.833,-75.833 0,-41.814 34.019,-75.833 75.833,-75.833 41.815,0 75.834,34.019 75.834,75.833 0,41.814 -34.019,75.833 -75.834,75.833 z m 0,-150.667 c -41.263,0 -74.833,33.57 -74.833,74.833 0,41.263 33.57,74.833 74.833,74.833 41.264,0 74.834,-33.57 74.834,-74.833 0,-41.263 -33.57,-74.833 -74.834,-74.833 z"
   id="path4" />
<circle
   fill="#de5d56"
   id="circle4"
   r="4.25"
   cy="105"
   cx="390.72586" />

<circle
   fill="#de5d56"
   id="circle6"
   r="4.25"
   cy="322"
   cx="390.72586" />

<g
   id="g14"
   transform="translate(0.22586464)">
	<path
   fill="#de5d56"
   d="m 172,180.833 c -41.815,0 -75.833,-34.019 -75.833,-75.833 0,-41.814 34.019,-75.834 75.833,-75.834 41.814,0 75.834,34.019 75.834,75.834 0,41.815 -34.019,75.833 -75.834,75.833 z m 0,-150.667 c -41.263,0 -74.833,33.57 -74.833,74.833 0,41.263 33.57,74.833 74.833,74.833 41.263,0 74.833,-33.57 74.833,-74.833 0,-41.263 -33.569,-74.833 -74.833,-74.833 z"
   id="path7" />
	<circle
   fill="#de5d56"
   id="circle8"
   r="4.25"
   cy="105"
   cx="171.91701" />
	<g
   id="g9">
		<polygon
   fill="#de5d56"
   points="144,100.167 162.167,100.167 162.167,89.667 163.167,89.667 163.167,101.167 144,101.167 "
   id="polygon8" />
		<polygon
   fill="#de5d56"
   points="180.833,89.667 181.833,89.667 181.833,100.167 200,100.167 200,101.167 180.833,101.167 "
   id="polygon9" />
	</g>
	<g
   id="g11">
		<polygon
   fill="#de5d56"
   points="162.167,109.766 144,109.766 144,108.766 163.167,108.766 163.167,120.266 162.167,120.266 "
   id="polygon10" />
		<polygon
   fill="#de5d56"
   points="180.833,108.766 200,108.766 200,109.766 181.833,109.766 181.833,120.266 180.833,120.266 "
   id="polygon11" />
	</g>
	<rect
   x="162.375"
   y="20.5"
   fill="#de5d56"
   width="1"
   height="9.625"
   id="rect11" />
	<rect
   x="180.625"
   y="20.5"
   fill="#de5d56"
   width="1"
   height="9.625"
   id="rect12" />
	<rect
   x="162.375"
   y="180"
   fill="#de5d56"
   width="1"
   height="9.625"
   id="rect13" />
	<rect
   x="180.625"
   y="180"
   fill="#de5d56"
   width="1"
   height="9.625"
   id="rect14" />
</g>
<g
   id="g20"
   transform="translate(0.22586464)">
	<path
   fill="#de5d56"
   d="m 172,396.833 c -41.815,0 -75.833,-34.019 -75.833,-75.833 0,-41.815 34.019,-75.834 75.833,-75.834 41.814,0 75.833,34.019 75.833,75.834 0.001,41.814 -34.018,75.833 -75.833,75.833 z m 0,-150.667 c -41.263,0 -74.833,33.57 -74.833,74.834 0,41.263 33.57,74.833 74.833,74.833 41.263,0 74.833,-33.57 74.833,-74.833 0.001,-41.264 -33.569,-74.834 -74.833,-74.834 z"
   id="path14" />
	<circle
   fill="#de5d56"
   id="circle14"
   r="4.25"
   cy="321"
   cx="171.91701" />
	<g
   id="g15">
		<polygon
   fill="#de5d56"
   points="144,316.167 162.167,316.167 162.167,305.667 163.167,305.667 163.167,317.167 144,317.167 "
   id="polygon14" />
		<polygon
   fill="#de5d56"
   points="180.833,305.667 181.833,305.667 181.833,316.167 200,316.167 200,317.167 180.833,317.167 "
   id="polygon15" />
	</g>
	<g
   id="g17">
		<polygon
   fill="#de5d56"
   points="162.167,325.766 144,325.766 144,324.766 163.167,324.766 163.167,336.266 162.167,336.266 "
   id="polygon16" />
		<polygon
   fill="#de5d56"
   points="180.833,324.766 200,324.766 200,325.766 181.833,325.766 181.833,336.266 180.833,336.266 "
   id="polygon17" />
	</g>
	<rect
   x="162.375"
   y="236.5"
   fill="#de5d56"
   width="1"
   height="9.625"
   id="rect17" />
	<rect
   x="180.625"
   y="236.5"
   fill="#de5d56"
   width="1"
   height="9.625"
   id="rect18" />
	<rect
   x="162.375"
   y="396"
   fill="#de5d56"
   width="1"
   height="9.625"
   id="rect19" />
	<rect
   x="180.625"
   y="396"
   fill="#de5d56"
   width="1"
   height="9.625"
   id="rect20" />
</g>


<circle
   fill="#5066ac"
   id="circle32"
   r="3"
   cy="213.5"
   cx="502.72586" />

<g
   id="g37"
   transform="translate(0.22586464)">
	<rect
   x="70.166"
   y="2.3329999"
   fill="#de5d56"
   width="1"
   height="425.33301"
   id="rect33" />
	
		<rect
   x="-3.734"
   y="118.5"
   transform="matrix(0.9044,0.4266,-0.4266,0.9044,54.1449,-3.701)"
   fill="#de5d56"
   width="78.133003"
   height="1"
   id="rect34" />
	
		<rect
   x="34.833"
   y="267.93399"
   transform="matrix(0.4268,0.9044,-0.9044,0.4268,297.8904,144.0239)"
   fill="#de5d56"
   width="1"
   height="78.133003"
   id="rect35" />
	<g
   id="g36">
		<path
   fill="#53c8ea"
   d="m 92.667,195.418 h -22 v 39.083 H 92.25 c 0,0 7.583,-6.833 7.583,-18.75 0,-11.917 -7.166,-20.333 -7.166,-20.333 z"
   id="path35" />
		<path
   fill="#de5d56"
   d="M 92.442,235.001 H 70.167 v -40.083 h 22.731 l 0.15,0.176 c 0.073,0.085 7.286,8.695 7.286,20.658 0,12.001 -7.433,18.835 -7.749,19.121 z m -21.275,-1 H 92.05 c 1.006,-0.987 7.284,-7.58 7.284,-18.25 0,-10.657 -5.905,-18.571 -6.905,-19.833 H 71.167 Z"
   id="path36" />
	</g>
</g>




</svg>
